<svg xmlns="http://www.w3.org/2000/svg" version="1.1" width="512" height="512" viewBox="0 0 512 512"><g><path d="M469.614 269.743c0 74.695-60.557 135.252-135.252 135.252-74.7 0-135.252-60.556-135.252-135.252 0-74.701 60.551-135.257 135.252-135.257 74.695 0 135.252 60.557 135.252 135.257" fill="#FD6085"/><path d="M440.05 269.743c0 58.373-47.316 105.688-105.688 105.688s-105.693-47.316-105.693-105.688S275.99 164.05 334.362 164.05 440.05 211.37 440.05 269.743" fill="#F9D555"/><path d="M408.968 269.743c0 41.206-33.405 74.606-74.606 74.606-41.206 0-74.611-33.4-74.611-74.606s33.405-74.606 74.611-74.606c41.201 0 74.606 33.4 74.606 74.606" fill="#FD6085"/><path d="M384.05 269.743c0 27.439-22.243 49.688-49.688 49.688-27.444 0-49.693-22.248-49.693-49.688 0-27.444 22.248-49.693 49.693-49.693s49.688 22.249 49.688 49.693" fill="#F9D555"/><path d="M360.293 269.743c0 14.323-11.608 25.931-25.931 25.931s-25.936-11.608-25.936-25.931 11.613-25.936 25.936-25.936 25.931 11.614 25.931 25.936" fill="#FD6085"/><circle cx="315.851" cy="152.114" r="7.424" fill="#fff"/><path d="M413.568 177.852a4.6 4.6 0 1 1-9.2.002 4.6 4.6 0 0 1 9.2-.002M396.338 202.894a4.6 4.6 0 1 1-9.197 0 4.598 4.598 0 1 1 9.197 0M378.789 353.863a4.6 4.6 0 1 1-9.2.002 4.6 4.6 0 0 1 9.2-.002M460.973 273.366a4.6 4.6 0 0 1-9.201 0 4.596 4.596 0 0 1 4.6-4.596 4.597 4.597 0 0 1 4.601 4.596M428.412 281.098a4.6 4.6 0 1 1-9.2.002 4.6 4.6 0 0 1 9.2-.002M332.476 270.87a4.601 4.601 0 1 1-9.202 0 4.601 4.601 0 0 1 9.202 0M255.2 182.452a4.6 4.6 0 1 1-9.202 0 4.6 4.6 0 0 1 9.202 0M413.568 360.354a4.6 4.6 0 1 1-9.2.002 4.6 4.6 0 0 1 9.2-.002M353.479 306.528a4.594 4.594 0 0 1-4.601 4.596 4.593 4.593 0 0 1-4.596-4.596c0-2.546 2.055-4.6 4.596-4.6a4.593 4.593 0 0 1 4.601 4.6M292.352 233.405a4.6 4.6 0 1 1-9.202 0 4.6 4.6 0 0 1 9.202 0M292.352 191.817a4.6 4.6 0 1 1-9.202 0 4.6 4.6 0 0 1 9.202 0" fill="#fff"/><path d="M354.784 177.241c-.67-.65-2.02-9.767-3.241-9.693-1.226.074-2.298 9.117-2.868 9.707-1.152 1.196-9.554 2.045-9.484 3.201s8.323 1.702 9.489 2.829c.65.63 2.015 9.772 3.241 9.702 1.226-.074 2.273-9.087 2.868-9.702 1.107-1.156 9.578-2.045 9.514-3.211-.07-1.16-8.397-1.741-9.519-2.833" fill="#074785"/><path d="M409.698 323.406c-.675-.65-2.02-9.767-3.246-9.692s-2.293 9.112-2.868 9.707c-1.146 1.196-9.548 2.04-9.484 3.201.069 1.156 8.323 1.702 9.489 2.834.655.625 2.02 9.767 3.246 9.692 1.226-.069 2.273-9.087 2.868-9.697 1.107-1.156 9.578-2.05 9.509-3.211-.07-1.156-8.393-1.742-9.514-2.834" fill="#fff"/><path d="M270.937 288.686c10.635 48.576 3.583 91.658-20.898 119.108-23.976 27.529-66.343 40.561-116.16 38.581-49.836-1.489-91.192-17.434-113.202-46.561C-1.83 370.727-5.874 327.262 8.111 279.545c14.839-47.737 36.223-89.683 59.147-118.8 23.286-29.166 48.06-46.184 78.125-45.067 30.07.978 53.598 19.672 74.804 50.387 20.849 30.64 39.261 73.971 50.75 122.621" fill="#29aefd"/><path d="M72.881 59.985c-4.695-5.345 2.586-9.037 6.333-9.489 8.08-.973 18.849 2.804 26.154 5.797 6.159 2.526 13.167 3.806 19.732 1.702 9.623-3.092 16.079-10.104 26.809-9.35 10.735.754 17.017 10.491 27.35 10.854 9.097.313 15.563-7.077 24.278-7.916 9.965-.794 20.616 2.243 24.432 11.514 0 0-37.429 40.963-44.809 74.601l-76.467-2.66c-.001-.001-5.147-42.448-33.812-75.053" fill="#29aefd"/><path d="M185.636 121.816c-13.514-5.171-27.688-8.854-42.174-9.687-14.978-.864-29.802 1.737-43.767 7.137-6.898 2.66-1.995 13.032 4.874 10.377 16.784-6.481 34.085-7.3 51.087-4.362-2.05 8.055-3.459 16.263-6.065 24.169-2.313 7.017 8.427 11.052 10.74 4.03 1.444-4.387 2.521-8.874 3.548-13.365 2.6 5.042 5.231 10.07 8.581 14.695 1.836 2.536 5.802 2.63 8.075.73 2.521-2.109 2.561-5.548.73-8.075-4.164-5.752-7.037-12.293-10.362-18.561a154 154 0 0 1 10.71 3.653c6.916 2.644 10.921-8.105 4.023-10.741" fill="#074785"/><path d="M174.028 318.806c.295 4.325-3.832 6.873-7.474 7.995-4.838 1.627-9.322.018-13.941-1.415-5.9-1.901-12.99-3.271-18.998-.218-4.635 2.128-5.181 7.43-.228 10.164 2.243 1.379 5.052 2.779 8.442 4.198 6.965 2.99 15.35 6.221 21.807 10.68 3.429 2.288 6.313 5.007 8.66 8.129 4.034 4.951 5.197 15.075 2.342 20.566-3.815 7.703-12.867 9.614-20.422 12.099-1.646.618-.187 8.269-.442 10.486.567 8.042-5.979 13.199-13.33 8.63-4.059-2.612-2.508-7.279-3.012-11.39-.253-1.83-.252-5.1-1.737-6.253-7.041-1.415-16.839-2.233-22.695-7.147-3.728-2.781-4.325-8.998-.745-12.203 6.988-6.237 16.269.107 24.094 1.329 5.091 1.233 16.69 1.036 17.112-6.034-.898-5.044-9.33-6.558-13.305-8.115-10.398-3.673-22.401-8.476-28.939-17.965-10.92-17.206 3.554-36.114 22.214-37.772.622-4.804.669-9.738 1.697-14.506.754-3.241 2.938-4.963 6.541-5.156 2.627-.138 6.39 1.106 6.427 4.298.268 4.052-.371 9.309-.516 13.36 9.012 1.81 19.853 4.515 25.176 12.745.633 1.162 1.213 2.188 1.272 3.495" fill="#f9d555"/><path d="M37.263 378.702c-10.139-28.298-17.494-57.643-7.29-87.078 2.283-6.591-7.653-11.037-9.946-4.412-5.479 15.792-7.181 32.139-5.27 48.73 1.851 16.06 6.973 31.648 12.402 46.794 2.367 6.611 12.471 2.567 10.104-4.034M42.583 394.171c-6.938-1.037-8.556 9.722-1.613 10.759 6.938 1.043 8.551-9.722 1.613-10.759M31.893 260.894c-6.943-1.047-8.556 9.717-1.613 10.755 6.938 1.042 8.551-9.722 1.613-10.755" fill="#fff"/><path d="M275.394 319.927c-33.653-1.568-65.191 20.07-74.804 53.876-6.164 21.683-2.02 43.847 9.509 61.281 16.1-6.432 29.703-15.534 39.941-27.291 19.076-21.394 27.567-52.282 25.354-87.866" fill="#074785"/><path d="M361.454 409.456c-11.216 39.435-52.268 62.318-91.708 51.107-39.435-11.211-62.318-52.268-51.107-91.703 11.211-39.44 52.268-62.318 91.708-51.112 39.439 11.217 62.313 52.269 51.107 91.708" fill="#ffa4ac"/><path d="M346.645 406.568c-8.804 30.963-41.042 48.933-72.006 40.129-30.968-8.804-48.933-41.042-40.129-72.006 8.804-30.968 41.042-48.929 72.006-40.129s48.933 41.038 40.129 72.006" fill="#fd6085"/><path d="M331.25 402.191c-6.382 22.467-29.772 35.499-52.234 29.112-22.467-6.387-35.499-29.772-29.117-52.239 6.387-22.462 29.777-35.499 52.239-29.112 22.467 6.387 35.499 29.777 29.112 52.239" fill="#ffa4ac"/><path d="M306.208 376.36c.048 2.19-2.098 3.379-3.965 3.856-4.642 1.158-8.382-2.605-13.072-2.347-2.032.058-5.462.718-5.534 3.315.271 2.619 3.433 3.491 5.812 4.854 8.069 3.539 20.469 9.97 15.613 20.68-2.113 3.791-6.733 4.541-10.605 5.608q-.393.09-.422.908c-.226 2.727.651 6.532-1.712 8.615-2.03 1.722-6.666.367-6.586-2.739-.113-1.992.566-4.782-.67-6.491-3.521-.879-8.443-1.536-11.28-4.154-3.036-2.566-.855-7.495 3.008-7.374 4.263.093 8.024 3.006 12.372 2.898 4.187.227 8.292-3.264 2.819-5.876-6.429-2.874-14.081-5.082-18.055-11.395-5.189-8.678 2.876-18.351 12.134-18.526.971-3.313-.297-9.633 4.635-9.727 5.075-.073 2.536 5.986 2.556 9.057 4.504 1.132 9.911 2.758 12.397 7.042.29.604.559 1.131.555 1.796" fill="#fd6085"/><path d="M128.986 228.805c2.159 0 4.675-1.593 5.593-3.548 0 0 5.042-10.71 5.042-19.166 0-21.792-16.481-39.459-36.809-39.459S66.003 184.3 66.003 206.091c0 8.457 5.042 19.166 5.042 19.166.918 1.955 3.434 3.548 5.593 3.548z" fill="#fff"/><path d="M102.812 166.631c-13.355 0-25.052 7.633-31.504 19.052 3.454 15.822 16.978 27.633 33.137 27.633 14.685 0 27.191-9.752 31.951-23.399-5.763-13.728-18.631-23.286-33.584-23.286" fill="#074785"/><path d="M210.172 228.805c2.159 0 4.675-1.593 5.593-3.548 0 0 5.042-10.71 5.042-19.166 0-21.792-16.481-39.459-36.804-39.459-20.333 0-36.814 17.668-36.814 39.459 0 8.457 5.042 19.166 5.042 19.166.918 1.955 3.434 3.548 5.593 3.548z" fill="#fff"/><path d="M184.003 166.631c-13.365 0-25.062 7.633-31.509 19.052 3.454 15.822 16.978 27.633 33.137 27.633 14.685 0 27.191-9.752 31.946-23.399-5.757-13.728-18.631-23.286-33.574-23.286M157.537 238.512c0-4.844-7.509-4.844-7.509 0 0 4.953 1.543 19.613-7.161 18.218-6.854-1.097-5.687-12.715-5.683-17.717.005-4.844-7.499-4.844-7.509 0-.01 9.132.079 23.176 11.752 25.042 6.059.968 11.558-1.752 13.99-7.464 2.427-5.706 2.12-12.004 2.12-18.079" fill="#074785"/><path d="M101.184 273.366a7.42 7.42 0 0 1-7.424 7.424 7.423 7.423 0 1 1 0-14.848 7.425 7.425 0 0 1 7.424 7.424M186.976 270.87a4.6 4.6 0 1 1-9.2.002 4.6 4.6 0 0 1 9.2-.002M75.953 358.464c0 2.541-2.055 4.6-4.601 4.6a4.596 4.596 0 0 1-4.596-4.6 4.598 4.598 0 1 1 9.197 0M176.202 418.682a4.6 4.6 0 1 1-9.2.002 4.6 4.6 0 0 1 9.2-.002M168.748 86.168a4.6 4.6 0 1 1-9.202 0 4.6 4.6 0 0 1 9.202 0M208.306 331.922c0 2.546-2.055 4.6-4.596 4.6a4.594 4.594 0 0 1-4.601-4.6 4.594 4.594 0 0 1 4.601-4.596 4.593 4.593 0 0 1 4.596 4.596M242.381 249.564a4.6 4.6 0 1 1-9.202 0 4.6 4.6 0 0 1 9.202 0M128.251 149.291c0 2.541-2.055 4.6-4.596 4.6a4.596 4.596 0 0 1-4.6-4.6 4.598 4.598 0 1 1 9.196 0" fill="#fff"/><path d="M41.774 307.337c.084-1.409 7.955-2.273 12.293-3.39-1.663-4.258-5.603-11.236-4.437-12.035.988-.675 5.097 3.325 8.481 6.228 1.067-4.487 2.392-10.481 3.633-10.407 1.409.085 2.685 7.732 3.618 12.159 4.238-1.861 11.201-5.34 11.995-4.179.695 1.027-3.305 5.563-6.273 8.983 4.397 1.067 10.065 2.045 9.99 3.241-.08 1.415-8.015 2.248-12.333 3.39 1.638 4.258 5.628 11.241 4.457 12.04-.983.67-5.037-3.3-8.412-6.199-1.062 4.487-2.397 10.452-3.638 10.377-1.404-.084-2.665-7.707-3.603-12.139-4.228 1.861-11.251 5.36-12.05 4.194-.7-1.027 3.325-5.568 6.298-8.993-4.406-1.062-10.084-2.074-10.019-3.27" fill="#f9d555"/><path d="M223.155 283.064c-.675-.655-2.025-9.767-3.246-9.697-1.226.074-2.293 9.116-2.868 9.712-1.146 1.196-9.554 2.04-9.484 3.196s8.323 1.707 9.489 2.834c.65.63 2.02 9.767 3.246 9.697 1.221-.07 2.268-9.087 2.863-9.702 1.112-1.156 9.578-2.045 9.514-3.206-.07-1.162-8.397-1.748-9.514-2.834" fill="#074785"/><path d="M89.372 407.164c-.67-.65-2.02-9.767-3.241-9.693-1.226.074-2.298 9.117-2.869 9.707-1.146 1.196-9.553 2.04-9.484 3.201.069 1.156 8.323 1.702 9.489 2.829.65.63 2.015 9.772 3.241 9.697 1.226-.069 2.273-9.082 2.868-9.702 1.107-1.152 9.578-2.045 9.514-3.206-.069-1.161-8.396-1.741-9.518-2.833M119.447 83.141c-.67-.65-2.02-9.767-3.246-9.693s-2.293 9.117-2.863 9.707c-1.152 1.196-9.554 2.04-9.484 3.201.065 1.156 8.318 1.702 9.484 2.829.65.635 2.02 9.772 3.246 9.702 1.226-.074 2.273-9.087 2.868-9.702 1.107-1.156 9.578-2.045 9.509-3.211-.07-1.16-8.392-1.741-9.514-2.833" fill="#fff"/><path d="m454.949 215.703 23.782 3.449c1.295.134 3.176-.328 4.179-1.027l28.467-19.822c1.008-.7.769-1.419-.526-1.598l-20.988-2.903M441.628 194.646l7.067-22.963c.432-1.226 1.658-2.73 2.72-3.335l30.105-17.236c1.062-.611 1.613-.089 1.221 1.156l-6.362 20.209" fill="#7BEFE5"/><path d="M482.864 166.765c3.27-2.253 8.993.427 12.615 6.089a617 617 0 0 1 2.7 4.273c3.568 5.692 3.539 12.01.104 14-41.216 24.169-82.428 48.338-123.644 72.502-3.439 1.995-7.97.64-10.228-2.958a225 225 0 0 0-1.722-2.72c-2.288-3.578-1.568-8.258 1.707-10.511q59.235-40.334 118.468-80.675" fill="#074785"/><path d="M376.918 242.472c2.104 3.281 5.539 8.65 7.638 11.931l10.129 15.826c2.104 3.285.546 5.772-3.454 5.529l-13.385-.819-14.546-.883-13.385-.819c-4-.238-6.079-3.494-4.625-7.226l4.868-12.486c1.454-3.732 3.841-9.841 5.295-13.573l4.868-12.487c1.459-3.732 4.367-4.104 6.467-.819z" fill="#7BEFE5"/></g></svg>
